<svg viewBox="0 0 1000 1000" preserveAspectRatio="xMidYMid meet" width="1000" height="1000" version="1.1" xmlns="http://www.w3.org/2000/svg" desc="Created with imagetracer.js version 1.2.6" ><path fill="rgb(30,23,21)" stroke="rgb(30,23,21)" stroke-width="0" opacity="1" d="M 339 448 L 376 448 L 376 517.5 L 382 512.5 L 438.5 448 L 482 448.5 L 417 524.5 L 482 611.5 L 478.5 613 L 462.5 613 L 461.5 612 L 452.5 612 L 451.5 613 L 439.5 613 L 387.5 545 L 376 555.5 L 376 611.5 L 372.5 612 L 371.5 613 L 360.5 613 L 356.5 612 L 355.5 613 L 346.5 613 L 345.5 612 L 339 612 L 339 448 Z " /><path fill="rgb(30,23,21)" stroke="rgb(30,23,21)" stroke-width="0" opacity="1" d="M 493 448 L 576.5 448 L 595.5 454 L 610 466.5 L 616 478.5 L 617 483.5 L 617 500.5 Q 614 514.5 604.5 522 L 596 527.5 Q 609.3 531.2 617 540.5 Q 623 547.5 625 558.5 L 625 575.5 Q 621.3 593.8 608.5 603 L 594.5 610 L 585.5 612 L 575.5 612 L 574.5 613 L 572.5 612 L 571.5 613 L 530.5 613 L 529.5 612 L 518.5 612 L 517.5 613 L 504.5 613 L 502.5 613 L 494.5 613 L 493 611.5 L 493 448 Z M 530 478 L 530 513 L 570 513 L 578 509 Q 582 505 583 499 L 582 489 L 579 484 L 570 478 L 530 478 Z M 530 544 L 530 582 L 571 582 L 579 580 L 584 577 L 589 569 Q 591 557 587 553 Q 583 546 575 544 L 530 544 Z " /><path fill="rgb(241,53,23)" stroke="rgb(241,53,23)" stroke-width="0" opacity="1" d="M 476.5 212 L 539.5 213 L 540.5 214 L 572.5 215 L 573.5 216 L 585.5 216 L 586.5 217 L 622.5 220 L 629.5 222 L 659.5 226 L 694.5 234 L 720.5 243 L 739.5 253 L 749 262.5 L 751 266.5 L 751 320 L 763.5 319 L 764.5 318 L 784.5 318 L 788.5 317 L 789.5 318 L 805.5 318 L 821.5 321 L 837.5 327 Q 856.9 336.6 870 352.5 Q 882.7 367.8 889 389.5 L 893 410.5 L 893 440.5 L 892 441.5 L 891 456.5 L 887 473.5 Q 882.1 490.6 874 504.5 Q 859.8 530.3 838.5 549 Q 817.5 568 790.5 581 L 758.5 593 L 736.5 598 L 723.5 599 L 721 601.5 Q 701.9 645.4 668.5 675 L 667 674.5 L 667 337.5 L 663.5 337 L 533.5 381 L 508.5 393 Q 494.1 401.1 482.5 412 L 480.5 412 Q 467.1 399.9 450.5 391 L 426.5 380 L 293.5 336 L 292 337.5 L 291.5 675 Q 264.5 649.5 247 614.5 L 232 579.5 L 220 535.5 L 220 530.5 L 216 511.5 L 216 503.5 L 215 502.5 L 214 479.5 L 213 478.5 L 213 458.5 L 212 457.5 L 212 271.5 Q 214.8 262.8 221.5 258 Q 233.5 248.5 249.5 243 L 271.5 236 L 310.5 227 L 340.5 223 L 341.5 222 L 347.5 222 L 348.5 221 L 354.5 221 L 355.5 220 L 373.5 219 L 374.5 218 L 382.5 218 L 392.5 216 L 421.5 215 L 422.5 214 L 441.5 214 L 442.5 213 L 475.5 213 L 476.5 212 Z M 476 240 L 475 241 L 441 241 L 440 242 L 408 243 L 407 244 L 386 245 L 385 246 L 377 246 L 376 247 L 368 247 L 360 249 L 346 250 L 340 252 L 323 254 Q 315 258 304 258 L 278 265 L 262 271 L 249 278 L 247 282 L 248 286 L 254 290 L 270 297 L 387 333 L 437 350 L 464 362 L 481 373 L 485 372 Q 495 363 510 357 L 527 350 L 574 334 L 577 334 L 693 297 L 713 287 Q 717 286 716 279 Q 711 272 703 269 L 683 262 L 655 255 L 627 250 L 606 248 L 598 246 L 590 246 L 589 245 L 554 243 L 553 242 L 476 240 Z M 785 365 L 784 366 L 774 366 L 765 368 L 753 373 L 751 375 L 751 454 L 750 455 L 750 471 L 749 472 L 749 483 L 748 484 L 745 515 L 739 546 L 749 545 L 766 539 Q 786 530 802 517 Q 820 502 832 481 L 842 458 L 846 439 L 846 419 Q 844 417 845 412 Q 842 396 833 386 Q 818 366 785 365 Z " /><path fill="rgb(242,167,36)" stroke="rgb(242,167,36)" stroke-width="0" opacity="1" d="M 456.5 212 L 476 212.5 L 456.5 213 L 456.5 212 Z " /><path fill="rgb(242,167,36)" stroke="rgb(242,167,36)" stroke-width="0" opacity="1" d="M 508.5 212 L 525 212.5 L 508.5 213 L 508.5 212 Z " /><path fill="rgb(242,167,36)" stroke="rgb(242,167,36)" stroke-width="0" opacity="1" d="M 431.5 213 L 442 213.5 L 431.5 214 L 431.5 213 Z " /><path fill="rgb(242,167,36)" stroke="rgb(242,167,36)" stroke-width="0" opacity="1" d="M 540.5 213 L 549 213.5 L 540.5 214 L 540.5 213 Z " /><path fill="rgb(242,167,36)" stroke="rgb(242,167,36)" stroke-width="0" opacity="1" d="M 414.5 214 L 422 214.5 L 414.5 215 L 414.5 214 Z " /><path fill="rgb(242,167,36)" stroke="rgb(242,167,36)" stroke-width="0" opacity="1" d="M 557.5 214 L 566 214.5 L 557.5 215 L 557.5 214 Z " /><path fill="rgb(242,167,36)" stroke="rgb(242,167,36)" stroke-width="0" opacity="1" d="M 400.5 215 L 406 215.5 L 400.5 216 L 400.5 215 Z " /><path fill="rgb(242,167,36)" stroke="rgb(242,167,36)" stroke-width="0" opacity="1" d="M 573.5 215 L 580 215.5 L 573.5 216 L 573.5 215 Z " /><path fill="rgb(242,167,36)" stroke="rgb(242,167,36)" stroke-width="0" opacity="1" d="M 586.5 216 L 591 216.5 L 586.5 217 L 586.5 216 Z " /><path fill="rgb(242,167,36)" stroke="rgb(242,167,36)" stroke-width="0" opacity="1" d="M 378.5 217 L 383 217.5 L 378.5 218 L 378.5 217 Z " /><path fill="rgb(242,167,36)" stroke="rgb(242,167,36)" stroke-width="0" opacity="1" d="M 369.5 218 L 374 218.5 L 369.5 219 L 369.5 218 Z " /><path fill="rgb(242,167,36)" stroke="rgb(242,167,36)" stroke-width="0" opacity="1" d="M 614.5 219 L 619 219.5 L 614.5 220 L 614.5 219 Z " /><path fill="rgb(242,167,36)" stroke="rgb(242,167,36)" stroke-width="0" opacity="1" d="M 475.5 240 L 503 240.5 L 475.5 241 L 475.5 240 Z " /><path fill="rgb(242,167,36)" stroke="rgb(242,167,36)" stroke-width="0" opacity="1" d="M 440.5 241 L 450 241.5 L 440.5 242 L 440.5 241 Z " /><path fill="rgb(242,167,36)" stroke="rgb(242,167,36)" stroke-width="0" opacity="1" d="M 523.5 241 L 535 241.5 L 523.5 242 L 523.5 241 Z " /><path fill="rgb(242,167,36)" stroke="rgb(242,167,36)" stroke-width="0" opacity="1" d="M 421.5 242 L 430 242.5 L 421.5 243 L 421.5 242 Z " /><path fill="rgb(242,167,36)" stroke="rgb(242,167,36)" stroke-width="0" opacity="1" d="M 545.5 242 L 553 242.5 L 545.5 243 L 545.5 242 Z " /><path fill="rgb(242,167,36)" stroke="rgb(242,167,36)" stroke-width="0" opacity="1" d="M 407.5 243 L 413 243.5 L 407.5 244 L 407.5 243 Z " /><path fill="rgb(242,167,36)" stroke="rgb(242,167,36)" stroke-width="0" opacity="1" d="M 561.5 243 L 567 243.5 L 561.5 244 L 561.5 243 Z " /><path fill="rgb(242,167,36)" stroke="rgb(242,167,36)" stroke-width="0" opacity="1" d="M 573.5 244 L 578 244.5 L 573.5 245 L 573.5 244 Z " /><path fill="rgb(242,167,36)" stroke="rgb(242,167,36)" stroke-width="0" opacity="1" d="M 385.5 245 L 391 245.5 L 385.5 246 L 385.5 245 Z " /><path fill="rgb(242,167,36)" stroke="rgb(242,167,36)" stroke-width="0" opacity="1" d="M 583.5 245 L 589 245.5 L 583.5 246 L 583.5 245 Z " /><path fill="rgb(242,167,36)" stroke="rgb(242,167,36)" stroke-width="0" opacity="1" d="M 593.5 246 L 598 246.5 L 593.5 247 L 593.5 246 Z " /><path fill="rgb(242,167,36)" stroke="rgb(242,167,36)" stroke-width="0" opacity="1" d="M 751.5 268 L 752 319.5 L 751 319.5 L 751.5 268 Z " /><path fill="rgb(242,167,36)" stroke="rgb(242,167,36)" stroke-width="0" opacity="1" d="M 715.5 282 L 716 283.5 L 712 286.5 L 715.5 282 Z " /><path fill="rgb(242,167,36)" stroke="rgb(242,167,36)" stroke-width="0" opacity="1" d="M 771.5 317 L 785 317.5 L 771.5 318 L 771.5 317 Z " /><path fill="rgb(242,167,36)" stroke="rgb(242,167,36)" stroke-width="0" opacity="1" d="M 789.5 317 L 800 317.5 L 789.5 318 L 789.5 317 Z " /><path fill="rgb(242,167,36)" stroke="rgb(242,167,36)" stroke-width="0" opacity="1" d="M 293.5 336 L 293 337.5 L 293 675.5 L 291.5 676 L 284.5 668 L 292 674.5 L 292 337.5 L 293.5 336 Z " /><path fill="rgb(242,167,36)" stroke="rgb(242,167,36)" stroke-width="0" opacity="1" d="M 784.5 365 L 792 365.5 L 784.5 366 L 784.5 365 Z " /><path fill="rgb(242,167,36)" stroke="rgb(242,167,36)" stroke-width="0" opacity="1" d="M 751.5 374 L 752 436.5 L 751 436.5 L 751.5 374 Z " /><path fill="rgb(242,167,36)" stroke="rgb(242,167,36)" stroke-width="0" opacity="1" d="M 892.5 405 L 893 409.5 L 892 409.5 L 892.5 405 Z " /><path fill="rgb(242,167,36)" stroke="rgb(242,167,36)" stroke-width="0" opacity="1" d="M 893.5 418 L 894 434.5 L 893 434.5 L 893.5 418 Z " /><path fill="rgb(242,167,36)" stroke="rgb(242,167,36)" stroke-width="0" opacity="1" d="M 845.5 432 L 846 438.5 L 845 438.5 L 845.5 432 Z " /><path fill="rgb(242,167,36)" stroke="rgb(242,167,36)" stroke-width="0" opacity="1" d="M 892.5 441 L 893 446.5 L 892 446.5 L 892.5 441 Z " /><path fill="rgb(242,167,36)" stroke="rgb(242,167,36)" stroke-width="0" opacity="1" d="M 339.5 447 L 376 447.5 L 339.5 448 L 339.5 447 Z " /><path fill="rgb(242,167,36)" stroke="rgb(242,167,36)" stroke-width="0" opacity="1" d="M 438.5 447 L 481.5 447 L 483 448.5 L 479 451.5 L 481.5 448 L 438.5 448 L 435.5 451 L 438.5 447 Z " /><path fill="rgb(242,167,36)" stroke="rgb(242,167,36)" stroke-width="0" opacity="1" d="M 494.5 447 L 569 447.5 L 494.5 448 L 494.5 447 Z " /><path fill="rgb(242,167,36)" stroke="rgb(242,167,36)" stroke-width="0" opacity="1" d="M 750.5 454 L 751 463.5 L 750 463.5 L 750.5 454 Z " /><path fill="rgb(242,167,36)" stroke="rgb(242,167,36)" stroke-width="0" opacity="1" d="M 212.5 458 L 213 469.5 L 212 469.5 L 212.5 458 Z " /><path fill="rgb(242,167,36)" stroke="rgb(242,167,36)" stroke-width="0" opacity="1" d="M 749.5 471 L 750 476.5 L 749 476.5 L 749.5 471 Z " /><path fill="rgb(242,167,36)" stroke="rgb(242,167,36)" stroke-width="0" opacity="1" d="M 213.5 479 L 214 485.5 L 213 485.5 L 213.5 479 Z " /><path fill="rgb(242,167,36)" stroke="rgb(242,167,36)" stroke-width="0" opacity="1" d="M 617.5 487 L 618 496.5 L 617 496.5 L 617.5 487 Z " /><path fill="rgb(242,167,36)" stroke="rgb(242,167,36)" stroke-width="0" opacity="1" d="M 214.5 493 L 215 497.5 L 214 497.5 L 214.5 493 Z " /><path fill="rgb(242,167,36)" stroke="rgb(242,167,36)" stroke-width="0" opacity="1" d="M 582.5 493 L 583 498.5 L 582 498.5 L 582.5 493 Z " /><path fill="rgb(242,167,36)" stroke="rgb(242,167,36)" stroke-width="0" opacity="1" d="M 625.5 563 L 626 569.5 L 625 569.5 L 625.5 563 Z " /><path fill="rgb(242,167,36)" stroke="rgb(242,167,36)" stroke-width="0" opacity="1" d="M 800.5 575 L 799.5 577 L 797.5 578 L 798.5 576 L 800.5 575 Z " /><path fill="rgb(242,167,36)" stroke="rgb(242,167,36)" stroke-width="0" opacity="1" d="M 530.5 581 L 571 581.5 L 530.5 582 L 530.5 581 Z " /><path fill="rgb(242,167,36)" stroke="rgb(242,167,36)" stroke-width="0" opacity="1" d="M 339.5 612 L 346 612.5 L 339.5 613 L 339.5 612 Z " /><path fill="rgb(242,167,36)" stroke="rgb(242,167,36)" stroke-width="0" opacity="1" d="M 452.5 612 L 462 612.5 L 452.5 613 L 452.5 612 Z " /><path fill="rgb(242,167,36)" stroke="rgb(242,167,36)" stroke-width="0" opacity="1" d="M 518.5 612 L 530 612.5 L 518.5 613 L 518.5 612 Z " /><path fill="rgb(242,167,36)" stroke="rgb(242,167,36)" stroke-width="0" opacity="1" d="M 575.5 612 L 581 612.5 L 575.5 613 L 575.5 612 Z " /><path fill="rgb(242,167,36)" stroke="rgb(242,167,36)" stroke-width="0" opacity="1" d="M 479.5 646 L 484.5 647 L 616 706.5 L 616 800.5 L 614.5 801 L 480.5 729 L 342 801 L 342 706.5 L 343.5 706 L 479.5 646 Z " /><path fill="rgb(253,248,240)" stroke="rgb(253,248,240)" stroke-width="0" opacity="1" d="M 0 0 L 1000 0 L 1000 1000 L 0 1000 L 0 0 Z M 457 212 L 456 213 L 432 213 L 431 214 L 415 214 L 414 215 L 379 217 L 378 218 L 353 220 L 352 221 L 346 221 L 345 222 L 339 222 L 338 223 L 308 227 L 254 241 L 224 256 L 214 266 L 212 271 L 212 470 L 213 471 L 213 486 L 214 487 L 215 507 L 216 508 L 219 533 L 224 555 L 232 581 L 246 614 Q 264 649 292 676 L 293 676 L 293 337 L 368 361 L 371 361 L 438 385 Q 462 396 482 413 L 508 394 L 535 381 L 667 337 L 668 676 L 670 675 Q 689 657 704 635 L 718 611 L 722 600 L 753 595 L 783 585 Q 812 573 835 553 Q 858 533 874 506 Q 883 490 888 472 L 892 454 L 893 436 L 894 435 L 893 406 L 889 388 Q 882 365 868 350 Q 856 337 841 328 L 823 321 L 800 317 L 772 317 L 771 318 L 754 319 L 753 320 L 752 269 L 748 261 L 738 251 L 715 240 L 677 229 L 646 223 L 640 223 L 619 219 L 592 217 L 591 216 L 567 215 L 566 214 L 550 214 L 549 213 L 526 213 L 525 212 L 457 212 Z M 339 447 L 339 613 L 340 613 L 376 613 L 376 557 L 388 545 L 438 612 L 439 613 L 482 613 L 481 610 L 468 592 L 417 525 L 483 449 L 482 447 L 439 447 L 379 516 L 376 518 L 376 447 L 339 447 Z M 495 447 L 493 449 L 493 613 L 581 613 L 599 609 L 612 601 Q 619 595 623 585 L 626 570 L 624 553 L 619 543 Q 611 531 596 528 L 603 524 L 613 513 L 618 497 Q 619 475 609 465 Q 599 451 579 448 L 570 448 L 569 447 L 495 447 Z M 480 646 L 344 706 L 342 707 L 342 801 L 481 729 L 615 801 L 616 801 L 616 707 L 485 647 L 480 646 Z " /><path fill="rgb(253,248,240)" stroke="rgb(253,248,240)" stroke-width="0" opacity="1" d="M 450.5 241 L 522.5 241 L 523.5 242 L 544.5 242 L 545.5 243 L 572.5 244 L 573.5 245 L 582.5 245 L 583.5 246 L 592.5 246 L 593.5 247 L 601.5 247 L 616.5 250 L 623.5 250 L 656.5 256 L 684.5 263 L 705.5 271 L 716 279.5 Q 715.4 285.9 710.5 288 L 685.5 299 L 536.5 346 L 508.5 357 L 481.5 373 L 462.5 361 L 437.5 350 L 375.5 329 L 276.5 299 L 254.5 290 L 248 284.5 Q 247 278 251.5 277 Q 263.7 269.2 279.5 265 L 305.5 258 L 330.5 253 L 362.5 249 L 363.5 248 L 370.5 248 L 371.5 247 L 379.5 247 L 380.5 246 L 390.5 246 L 391.5 245 L 412.5 244 L 413.5 243 L 429.5 243 L 430.5 242 L 449.5 242 L 450.5 241 Z " /><path fill="rgb(253,248,240)" stroke="rgb(253,248,240)" stroke-width="0" opacity="1" d="M 776.5 366 Q 815 363.5 831 383.5 Q 839 392.5 843 405.5 L 846 422.5 L 846 431.5 L 845 432.5 L 844 448.5 L 837 469.5 Q 825.8 494.8 806.5 512 Q 780.4 537.1 739 546 L 744 523.5 L 744 517.5 L 748 495.5 L 748 487.5 L 749 486.5 L 749 477.5 L 750 476.5 L 751 437.5 L 752 436.5 L 752 373 L 762.5 369 L 776.5 366 Z " /><path fill="rgb(253,248,240)" stroke="rgb(253,248,240)" stroke-width="0" opacity="1" d="M 530 478 L 567.5 478 Q 576 479.5 580 485.5 Q 583.4 490.6 582 500.5 Q 580.5 507 575.5 510 L 567.5 513 L 530 513 L 530 478 Z " /><path fill="rgb(253,248,240)" stroke="rgb(253,248,240)" stroke-width="0" opacity="1" d="M 530 544 L 573.5 544 Q 581.8 545.7 586 551.5 Q 590.4 556.6 589 567.5 Q 587.2 574.7 581.5 578 L 573.5 581 L 530 581 L 530 544 Z " /></svg>